<mxfile host="Electron" modified="2025-05-23T07:26:19.504Z" agent="Mozilla/5.0 (Macintosh; Intel Mac OS X 10_15_7) AppleWebKit/537.36 (KHTML, like Gecko) draw.io/22.1.2 Chrome/114.0.5735.289 Electron/25.9.4 Safari/537.36" etag="FG5Q3SyIA5rpjiCWxtLz" version="22.1.2" type="device">
  <diagram name="Page-1" id="5f0bae14-7c28-e335-631c-24af17079c00">
    <mxGraphModel dx="3328" dy="2448" grid="1" gridSize="10" guides="1" tooltips="1" connect="1" arrows="1" fold="1" page="1" pageScale="1" pageWidth="1100" pageHeight="850" background="none" math="0" shadow="0">
      <root>
        <mxCell id="0" />
        <mxCell id="1" parent="0" />
        <mxCell id="-BYuLkJd2z2CuZ6bA0mZ-89" value="" style="endArrow=classic;html=1;rounded=0;strokeColor=#A0522D;fontStyle=1" edge="1" parent="1">
          <mxGeometry width="50" height="50" relative="1" as="geometry">
            <mxPoint x="170" y="718" as="sourcePoint" />
            <mxPoint x="170" y="768" as="targetPoint" />
          </mxGeometry>
        </mxCell>
        <mxCell id="-BYuLkJd2z2CuZ6bA0mZ-88" value="" style="endArrow=classic;html=1;rounded=0;fillColor=#a0522d;strokeColor=#A0522D;fontStyle=1;fontSize=14;" edge="1" parent="1">
          <mxGeometry width="50" height="50" relative="1" as="geometry">
            <mxPoint x="170" y="126" as="sourcePoint" />
            <mxPoint x="170" y="166" as="targetPoint" />
          </mxGeometry>
        </mxCell>
        <mxCell id="-BYuLkJd2z2CuZ6bA0mZ-78" value="Embed Documents in Corpus" style="html=1;align=left;spacingLeft=2;endArrow=block;rounded=0;edgeStyle=orthogonalEdgeStyle;curved=0;rounded=0;fillColor=#a0522d;strokeColor=#A0522D;fontStyle=1;fontSize=14;" edge="1" parent="1">
          <mxGeometry x="-1" y="-20" relative="1" as="geometry">
            <mxPoint x="110" y="126" as="sourcePoint" />
            <Array as="points">
              <mxPoint x="170" y="126" />
              <mxPoint x="170" y="460" />
              <mxPoint x="110" y="460" />
            </Array>
            <mxPoint x="110" y="460" as="targetPoint" />
            <mxPoint as="offset" />
          </mxGeometry>
        </mxCell>
        <mxCell id="-BYuLkJd2z2CuZ6bA0mZ-58" value="" style="rounded=0;whiteSpace=wrap;html=1;strokeColor=#A0522D;fontStyle=1;fontSize=14;" vertex="1" parent="1">
          <mxGeometry x="115" y="230" width="115" height="220" as="geometry" />
        </mxCell>
        <mxCell id="-BYuLkJd2z2CuZ6bA0mZ-11" style="edgeStyle=orthogonalEdgeStyle;rounded=0;orthogonalLoop=1;jettySize=auto;html=1;exitX=0.5;exitY=1;exitDx=0;exitDy=0;entryX=0.081;entryY=-0.043;entryDx=0;entryDy=0;entryPerimeter=0;fillColor=#d5e8d4;strokeColor=#82b366;" edge="1" parent="1" source="n4vaRY5eCSg-2q49SCnd-3" target="-BYuLkJd2z2CuZ6bA0mZ-17">
          <mxGeometry relative="1" as="geometry">
            <mxPoint x="-130.33333333333348" y="350" as="targetPoint" />
          </mxGeometry>
        </mxCell>
        <mxCell id="n4vaRY5eCSg-2q49SCnd-3" value="&lt;font style=&quot;font-size: 22px;&quot;&gt;User Interface&lt;/font&gt;" style="rounded=0;whiteSpace=wrap;html=1;fillColor=#d5e8d4;strokeColor=#82b366;" parent="1" vertex="1">
          <mxGeometry x="-220" y="-361" width="180" height="60" as="geometry" />
        </mxCell>
        <mxCell id="-BYuLkJd2z2CuZ6bA0mZ-12" style="edgeStyle=orthogonalEdgeStyle;rounded=0;orthogonalLoop=1;jettySize=auto;html=1;exitX=0.5;exitY=1;exitDx=0;exitDy=0;entryX=0.259;entryY=0.01;entryDx=0;entryDy=0;entryPerimeter=0;fillColor=#a0522d;strokeColor=#6D1F00;" edge="1" parent="1" source="n4vaRY5eCSg-2q49SCnd-4" target="-BYuLkJd2z2CuZ6bA0mZ-17">
          <mxGeometry relative="1" as="geometry">
            <mxPoint x="109.66666666666652" y="330" as="targetPoint" />
          </mxGeometry>
        </mxCell>
        <mxCell id="n4vaRY5eCSg-2q49SCnd-4" value="&lt;font style=&quot;font-size: 22px;&quot;&gt;RAG Backend&lt;/font&gt;" style="rounded=0;whiteSpace=wrap;html=1;fillColor=#a0522d;strokeColor=#6D1F00;fontColor=#ffffff;" parent="1" vertex="1">
          <mxGeometry x="20" y="-361" width="180" height="60" as="geometry" />
        </mxCell>
        <mxCell id="-BYuLkJd2z2CuZ6bA0mZ-14" style="edgeStyle=orthogonalEdgeStyle;rounded=0;orthogonalLoop=1;jettySize=auto;html=1;exitX=0.5;exitY=1;exitDx=0;exitDy=0;fillColor=#f8cecc;strokeColor=#b85450;entryX=0.615;entryY=-0.022;entryDx=0;entryDy=0;entryPerimeter=0;" edge="1" parent="1" source="n4vaRY5eCSg-2q49SCnd-17" target="-BYuLkJd2z2CuZ6bA0mZ-17">
          <mxGeometry relative="1" as="geometry">
            <mxPoint x="590" y="470" as="targetPoint" />
          </mxGeometry>
        </mxCell>
        <mxCell id="n4vaRY5eCSg-2q49SCnd-17" value="&lt;div style=&quot;font-size: 20px;&quot;&gt;&lt;span style=&quot;background-color: initial;&quot;&gt;&lt;font style=&quot;font-size: 20px;&quot;&gt;Cosine Similarity&amp;nbsp;&lt;/font&gt;&lt;/span&gt;&lt;/div&gt;&lt;div style=&quot;font-size: 20px;&quot;&gt;&lt;span style=&quot;background-color: initial;&quot;&gt;&lt;font style=&quot;font-size: 20px;&quot;&gt;(on NPU)&lt;/font&gt;&lt;/span&gt;&lt;br&gt;&lt;/div&gt;" style="rounded=0;whiteSpace=wrap;html=1;container=0;fillColor=#f8cecc;strokeColor=#b85450;" parent="1" vertex="1">
          <mxGeometry x="500" y="-361" width="180" height="60" as="geometry" />
        </mxCell>
        <mxCell id="-BYuLkJd2z2CuZ6bA0mZ-16" style="edgeStyle=orthogonalEdgeStyle;rounded=0;orthogonalLoop=1;jettySize=auto;html=1;exitX=0.5;exitY=1;exitDx=0;exitDy=0;entryX=0.97;entryY=0.017;entryDx=0;entryDy=0;entryPerimeter=0;fillColor=#dae8fc;strokeColor=#6c8ebf;" edge="1" parent="1" source="n4vaRY5eCSg-2q49SCnd-27" target="-BYuLkJd2z2CuZ6bA0mZ-17">
          <mxGeometry relative="1" as="geometry">
            <mxPoint x="1069.6666666666665" y="430" as="targetPoint" />
          </mxGeometry>
        </mxCell>
        <mxCell id="n4vaRY5eCSg-2q49SCnd-27" value="&lt;div style=&quot;font-size: 22px;&quot;&gt;&lt;font style=&quot;font-size: 22px;&quot;&gt;PostgresSQL&lt;/font&gt;&lt;/div&gt;&lt;div style=&quot;font-size: 22px;&quot;&gt;&lt;font style=&quot;font-size: 22px;&quot;&gt;Database&lt;/font&gt;&lt;/div&gt;" style="rounded=0;whiteSpace=wrap;html=1;container=0;fillColor=#dae8fc;strokeColor=#6c8ebf;" parent="1" vertex="1">
          <mxGeometry x="980" y="-361" width="180" height="60" as="geometry" />
        </mxCell>
        <mxCell id="-BYuLkJd2z2CuZ6bA0mZ-15" style="edgeStyle=orthogonalEdgeStyle;rounded=0;orthogonalLoop=1;jettySize=auto;html=1;exitX=0.5;exitY=1;exitDx=0;exitDy=0;entryX=0.793;entryY=0;entryDx=0;entryDy=0;entryPerimeter=0;fillColor=#e1d5e7;strokeColor=#9673A6;" edge="1" parent="1" source="n4vaRY5eCSg-2q49SCnd-30" target="-BYuLkJd2z2CuZ6bA0mZ-17">
          <mxGeometry relative="1" as="geometry">
            <mxPoint x="830" y="410" as="targetPoint" />
          </mxGeometry>
        </mxCell>
        <mxCell id="n4vaRY5eCSg-2q49SCnd-30" value="&lt;font style=&quot;&quot;&gt;&lt;font style=&quot;font-size: 22px;&quot;&gt;File System&lt;/font&gt;&lt;br&gt;&lt;/font&gt;" style="rounded=0;whiteSpace=wrap;html=1;fillColor=#e1d5e7;strokeColor=#9673a6;" parent="1" vertex="1">
          <mxGeometry x="740" y="-361" width="180" height="60" as="geometry" />
        </mxCell>
        <mxCell id="-BYuLkJd2z2CuZ6bA0mZ-17" value="" style="rounded=0;whiteSpace=wrap;html=1;" vertex="1" parent="1">
          <mxGeometry x="-240" y="1330" width="1350" height="60" as="geometry" />
        </mxCell>
        <mxCell id="-BYuLkJd2z2CuZ6bA0mZ-13" style="edgeStyle=orthogonalEdgeStyle;rounded=0;orthogonalLoop=1;jettySize=auto;html=1;exitX=0.5;exitY=1;exitDx=0;exitDy=0;entryX=0.437;entryY=0.01;entryDx=0;entryDy=0;entryPerimeter=0;fillColor=#fff2cc;strokeColor=#d6b656;" edge="1" parent="1" target="-BYuLkJd2z2CuZ6bA0mZ-17">
          <mxGeometry relative="1" as="geometry">
            <mxPoint x="349.6666666666665" y="340" as="targetPoint" />
            <mxPoint x="350" y="-301" as="sourcePoint" />
          </mxGeometry>
        </mxCell>
        <mxCell id="-BYuLkJd2z2CuZ6bA0mZ-18" value="" style="endArrow=classic;html=1;rounded=0;fillColor=#ffe6cc;strokeColor=#d79b00;fontSize=14;fontStyle=1" edge="1" parent="1">
          <mxGeometry width="50" height="50" relative="1" as="geometry">
            <mxPoint x="-130" y="-260" as="sourcePoint" />
            <mxPoint x="110" y="-260" as="targetPoint" />
          </mxGeometry>
        </mxCell>
        <mxCell id="-BYuLkJd2z2CuZ6bA0mZ-19" value="Initialize System" style="edgeLabel;html=1;align=center;verticalAlign=middle;resizable=0;points=[];fontSize=14;fontStyle=1" vertex="1" connectable="0" parent="-BYuLkJd2z2CuZ6bA0mZ-18">
          <mxGeometry x="0.2833" relative="1" as="geometry">
            <mxPoint x="-41" as="offset" />
          </mxGeometry>
        </mxCell>
        <mxCell id="-BYuLkJd2z2CuZ6bA0mZ-20" value="" style="endArrow=classic;html=1;rounded=0;fillColor=#dae8fc;strokeColor=#6c8ebf;fontSize=14;fontStyle=1" edge="1" parent="1">
          <mxGeometry width="50" height="50" relative="1" as="geometry">
            <mxPoint x="110" y="-252" as="sourcePoint" />
            <mxPoint x="1070" y="-252" as="targetPoint" />
          </mxGeometry>
        </mxCell>
        <mxCell id="-BYuLkJd2z2CuZ6bA0mZ-21" value="&lt;font style=&quot;font-size: 14px;&quot;&gt;Initialize Database&lt;/font&gt;" style="edgeLabel;html=1;align=center;verticalAlign=middle;resizable=0;points=[];fontColor=#000000;fontSize=14;fontStyle=1" vertex="1" connectable="0" parent="-BYuLkJd2z2CuZ6bA0mZ-20">
          <mxGeometry x="0.2833" relative="1" as="geometry">
            <mxPoint x="-136" as="offset" />
          </mxGeometry>
        </mxCell>
        <mxCell id="-BYuLkJd2z2CuZ6bA0mZ-22" value="" style="endArrow=classic;html=1;rounded=0;fillColor=#fff2cc;strokeColor=#d6b656;fontSize=14;fontStyle=1" edge="1" parent="1">
          <mxGeometry width="50" height="50" relative="1" as="geometry">
            <mxPoint x="350" y="-110" as="sourcePoint" />
            <mxPoint x="110" y="-110" as="targetPoint" />
          </mxGeometry>
        </mxCell>
        <mxCell id="-BYuLkJd2z2CuZ6bA0mZ-23" value="LLM weights loaded" style="edgeLabel;html=1;align=center;verticalAlign=middle;resizable=0;points=[];fontSize=14;fontStyle=1" vertex="1" connectable="0" parent="-BYuLkJd2z2CuZ6bA0mZ-22">
          <mxGeometry x="-0.0799" y="2" relative="1" as="geometry">
            <mxPoint x="-9" y="-4" as="offset" />
          </mxGeometry>
        </mxCell>
        <mxCell id="-BYuLkJd2z2CuZ6bA0mZ-24" value="" style="endArrow=classic;html=1;rounded=0;fillColor=#fff2cc;strokeColor=#d6b656;fontSize=14;fontStyle=1" edge="1" parent="1">
          <mxGeometry width="50" height="50" relative="1" as="geometry">
            <mxPoint x="111" y="-132" as="sourcePoint" />
            <mxPoint x="351" y="-132" as="targetPoint" />
          </mxGeometry>
        </mxCell>
        <mxCell id="-BYuLkJd2z2CuZ6bA0mZ-25" value="Load Embedding &amp;amp; Chat Models" style="edgeLabel;html=1;align=center;verticalAlign=middle;resizable=0;points=[];fontSize=14;fontStyle=1" vertex="1" connectable="0" parent="-BYuLkJd2z2CuZ6bA0mZ-24">
          <mxGeometry x="0.2833" relative="1" as="geometry">
            <mxPoint x="-41" as="offset" />
          </mxGeometry>
        </mxCell>
        <mxCell id="-BYuLkJd2z2CuZ6bA0mZ-26" value="&lt;div style=&quot;font-size: 20px;&quot;&gt;&lt;div&gt;llama.cpp&lt;/div&gt;&lt;div&gt;(LLM on GPU)&lt;/div&gt;&lt;/div&gt;" style="rounded=0;whiteSpace=wrap;html=1;container=0;fillColor=#fff2cc;strokeColor=#d6b656;" vertex="1" parent="1">
          <mxGeometry x="260" y="-361" width="180" height="60" as="geometry" />
        </mxCell>
        <mxCell id="-BYuLkJd2z2CuZ6bA0mZ-27" value="" style="endArrow=none;html=1;rounded=0;fillColor=#dae8fc;strokeColor=#6c8ebf;endFill=0;startArrow=classic;startFill=1;fontSize=14;fontStyle=1" edge="1" parent="1">
          <mxGeometry width="50" height="50" relative="1" as="geometry">
            <mxPoint x="111" y="-236" as="sourcePoint" />
            <mxPoint x="1071" y="-236" as="targetPoint" />
          </mxGeometry>
        </mxCell>
        <mxCell id="-BYuLkJd2z2CuZ6bA0mZ-28" value="&lt;font style=&quot;font-size: 14px;&quot;&gt;Database initialized&lt;/font&gt;" style="edgeLabel;html=1;align=center;verticalAlign=middle;resizable=0;points=[];fontColor=#000000;fontSize=14;fontStyle=1" vertex="1" connectable="0" parent="-BYuLkJd2z2CuZ6bA0mZ-27">
          <mxGeometry x="0.2833" relative="1" as="geometry">
            <mxPoint x="-133" as="offset" />
          </mxGeometry>
        </mxCell>
        <mxCell id="-BYuLkJd2z2CuZ6bA0mZ-31" value="" style="endArrow=classic;html=1;rounded=0;fillColor=#ffe6cc;strokeColor=#d79b00;fontStyle=1;fontSize=14;" edge="1" parent="1">
          <mxGeometry width="50" height="50" relative="1" as="geometry">
            <mxPoint x="-130" y="106" as="sourcePoint" />
            <mxPoint x="110" y="106" as="targetPoint" />
          </mxGeometry>
        </mxCell>
        <mxCell id="-BYuLkJd2z2CuZ6bA0mZ-32" value="Set Corpus directory" style="edgeLabel;html=1;align=center;verticalAlign=middle;resizable=0;points=[];fontStyle=1;fontSize=14;" vertex="1" connectable="0" parent="-BYuLkJd2z2CuZ6bA0mZ-31">
          <mxGeometry x="0.2833" relative="1" as="geometry">
            <mxPoint x="-41" as="offset" />
          </mxGeometry>
        </mxCell>
        <mxCell id="-BYuLkJd2z2CuZ6bA0mZ-41" value="Create LLM context pool" style="html=1;align=left;spacingLeft=2;endArrow=block;rounded=0;edgeStyle=orthogonalEdgeStyle;curved=0;rounded=0;fontSize=14;fontStyle=1;fillColor=#a0522d;strokeColor=#6D1F00;" edge="1" parent="1">
          <mxGeometry x="-0.9278" y="-27" relative="1" as="geometry">
            <mxPoint x="110" y="-79" as="sourcePoint" />
            <Array as="points">
              <mxPoint x="220" y="-79" />
              <mxPoint x="220" y="-22" />
            </Array>
            <mxPoint x="110" y="-22" as="targetPoint" />
            <mxPoint as="offset" />
          </mxGeometry>
        </mxCell>
        <mxCell id="-BYuLkJd2z2CuZ6bA0mZ-42" value="" style="endArrow=classic;html=1;rounded=0;fillColor=#a0522d;strokeColor=#6D1F00;fontSize=14;fontStyle=1" edge="1" parent="1">
          <mxGeometry width="50" height="50" relative="1" as="geometry">
            <mxPoint x="110" y="-11" as="sourcePoint" />
            <mxPoint x="-130" y="-11" as="targetPoint" />
          </mxGeometry>
        </mxCell>
        <mxCell id="-BYuLkJd2z2CuZ6bA0mZ-43" value="System Initialized" style="edgeLabel;html=1;align=center;verticalAlign=middle;resizable=0;points=[];fontSize=14;fontStyle=1" vertex="1" connectable="0" parent="-BYuLkJd2z2CuZ6bA0mZ-42">
          <mxGeometry x="-0.0799" y="2" relative="1" as="geometry">
            <mxPoint x="-9" y="-4" as="offset" />
          </mxGeometry>
        </mxCell>
        <mxCell id="-BYuLkJd2z2CuZ6bA0mZ-65" style="edgeStyle=orthogonalEdgeStyle;rounded=0;orthogonalLoop=1;jettySize=auto;html=1;exitX=1;exitY=0.75;exitDx=0;exitDy=0;startArrow=classic;startFill=1;fillColor=#e1d5e7;strokeColor=#9673A6;endArrow=none;endFill=0;fontStyle=1;fontSize=14;" edge="1" parent="1" source="-BYuLkJd2z2CuZ6bA0mZ-46">
          <mxGeometry relative="1" as="geometry">
            <mxPoint x="830" y="204" as="targetPoint" />
          </mxGeometry>
        </mxCell>
        <mxCell id="-BYuLkJd2z2CuZ6bA0mZ-66" value="obtain list of documents" style="edgeLabel;html=1;align=center;verticalAlign=middle;resizable=0;points=[];fontStyle=1;fontSize=14;" vertex="1" connectable="0" parent="-BYuLkJd2z2CuZ6bA0mZ-65">
          <mxGeometry x="-0.0963" relative="1" as="geometry">
            <mxPoint as="offset" />
          </mxGeometry>
        </mxCell>
        <mxCell id="-BYuLkJd2z2CuZ6bA0mZ-79" style="edgeStyle=orthogonalEdgeStyle;rounded=0;orthogonalLoop=1;jettySize=auto;html=1;fillColor=#a0522d;strokeColor=#A0522D;fontStyle=1;fontSize=14;entryX=0.477;entryY=-0.002;entryDx=0;entryDy=0;entryPerimeter=0;" edge="1" parent="1" source="-BYuLkJd2z2CuZ6bA0mZ-46" target="-BYuLkJd2z2CuZ6bA0mZ-58">
          <mxGeometry relative="1" as="geometry">
            <mxPoint x="170" y="240" as="targetPoint" />
            <Array as="points">
              <mxPoint x="170" y="230" />
              <mxPoint x="170" y="230" />
            </Array>
          </mxGeometry>
        </mxCell>
        <mxCell id="-BYuLkJd2z2CuZ6bA0mZ-46" value="Scan the directory for documents" style="rounded=0;whiteSpace=wrap;html=1;strokeColor=#A0522D;fontStyle=1;fontSize=14;" vertex="1" parent="1">
          <mxGeometry x="115" y="166" width="115" height="50" as="geometry" />
        </mxCell>
        <mxCell id="-BYuLkJd2z2CuZ6bA0mZ-52" value="For each &lt;br&gt;Document" style="text;html=1;strokeColor=none;fillColor=none;align=center;verticalAlign=middle;whiteSpace=wrap;rounded=0;fontStyle=1;fontSize=14;" vertex="1" parent="1">
          <mxGeometry x="117" y="234" width="110" height="20" as="geometry" />
        </mxCell>
        <mxCell id="-BYuLkJd2z2CuZ6bA0mZ-53" value="split into chunks" style="rounded=0;whiteSpace=wrap;html=1;fontStyle=1;fontSize=14;" vertex="1" parent="1">
          <mxGeometry x="120" y="270" width="105" height="34" as="geometry" />
        </mxCell>
        <mxCell id="-BYuLkJd2z2CuZ6bA0mZ-54" value="obtain embeddings" style="rounded=0;whiteSpace=wrap;html=1;fontStyle=1;fontSize=14;" vertex="1" parent="1">
          <mxGeometry x="120" y="310" width="105" height="40" as="geometry" />
        </mxCell>
        <mxCell id="-BYuLkJd2z2CuZ6bA0mZ-55" value="" style="endArrow=classic;html=1;rounded=0;fillColor=#fff2cc;strokeColor=#d6b656;exitX=0.994;exitY=0.164;exitDx=0;exitDy=0;exitPerimeter=0;fontStyle=1;fontSize=14;" edge="1" parent="1" source="-BYuLkJd2z2CuZ6bA0mZ-54">
          <mxGeometry width="50" height="50" relative="1" as="geometry">
            <mxPoint x="267.5" y="343.24" as="sourcePoint" />
            <mxPoint x="350" y="317" as="targetPoint" />
          </mxGeometry>
        </mxCell>
        <mxCell id="-BYuLkJd2z2CuZ6bA0mZ-71" value="&lt;font style=&quot;font-size: 11px;&quot;&gt;text chunks&lt;/font&gt;" style="edgeLabel;html=1;align=center;verticalAlign=middle;resizable=0;points=[];fontStyle=1;fontSize=14;" vertex="1" connectable="0" parent="-BYuLkJd2z2CuZ6bA0mZ-55">
          <mxGeometry x="-0.1815" y="1" relative="1" as="geometry">
            <mxPoint x="-6" as="offset" />
          </mxGeometry>
        </mxCell>
        <mxCell id="-BYuLkJd2z2CuZ6bA0mZ-61" style="edgeStyle=orthogonalEdgeStyle;rounded=0;orthogonalLoop=1;jettySize=auto;html=1;exitX=1;exitY=0.5;exitDx=0;exitDy=0;fillColor=#b1ddf0;strokeColor=#10739e;fontStyle=1;fontSize=14;" edge="1" parent="1" source="-BYuLkJd2z2CuZ6bA0mZ-57">
          <mxGeometry relative="1" as="geometry">
            <mxPoint x="1070" y="380" as="targetPoint" />
          </mxGeometry>
        </mxCell>
        <mxCell id="-BYuLkJd2z2CuZ6bA0mZ-62" value="Store text chunks, document metadata, embeddings &amp;amp; hash" style="edgeLabel;html=1;align=center;verticalAlign=middle;resizable=0;points=[];fontStyle=1;fontSize=14;" vertex="1" connectable="0" parent="-BYuLkJd2z2CuZ6bA0mZ-61">
          <mxGeometry x="0.0207" y="1" relative="1" as="geometry">
            <mxPoint as="offset" />
          </mxGeometry>
        </mxCell>
        <mxCell id="-BYuLkJd2z2CuZ6bA0mZ-57" value="store to database" style="rounded=0;whiteSpace=wrap;html=1;fontStyle=1;fontSize=14;" vertex="1" parent="1">
          <mxGeometry x="120" y="360" width="105" height="40" as="geometry" />
        </mxCell>
        <mxCell id="-BYuLkJd2z2CuZ6bA0mZ-64" style="edgeStyle=orthogonalEdgeStyle;rounded=0;orthogonalLoop=1;jettySize=auto;html=1;exitX=1;exitY=0.5;exitDx=0;exitDy=0;fillColor=#d0cee2;strokeColor=#9673A6;fontStyle=1;fontSize=14;" edge="1" parent="1" source="-BYuLkJd2z2CuZ6bA0mZ-63">
          <mxGeometry relative="1" as="geometry">
            <mxPoint x="830" y="425" as="targetPoint" />
          </mxGeometry>
        </mxCell>
        <mxCell id="-BYuLkJd2z2CuZ6bA0mZ-69" value="Store hash &amp;amp; embeddings" style="edgeLabel;html=1;align=center;verticalAlign=middle;resizable=0;points=[];fontStyle=1;fontSize=14;" vertex="1" connectable="0" parent="-BYuLkJd2z2CuZ6bA0mZ-64">
          <mxGeometry x="-0.1691" y="2" relative="1" as="geometry">
            <mxPoint x="24" y="2" as="offset" />
          </mxGeometry>
        </mxCell>
        <mxCell id="-BYuLkJd2z2CuZ6bA0mZ-63" value="store to vector dump cache" style="rounded=0;whiteSpace=wrap;html=1;fontStyle=1;fontSize=14;" vertex="1" parent="1">
          <mxGeometry x="120" y="405" width="105" height="40" as="geometry" />
        </mxCell>
        <mxCell id="-BYuLkJd2z2CuZ6bA0mZ-67" style="edgeStyle=orthogonalEdgeStyle;rounded=0;orthogonalLoop=1;jettySize=auto;html=1;exitX=0.995;exitY=0.125;exitDx=0;exitDy=0;startArrow=none;startFill=0;fillColor=#e1d5e7;strokeColor=#9673A6;exitPerimeter=0;fontStyle=1;fontSize=14;" edge="1" parent="1" source="-BYuLkJd2z2CuZ6bA0mZ-46">
          <mxGeometry relative="1" as="geometry">
            <mxPoint x="829" y="172" as="targetPoint" />
            <mxPoint x="239" y="168" as="sourcePoint" />
          </mxGeometry>
        </mxCell>
        <mxCell id="-BYuLkJd2z2CuZ6bA0mZ-68" value="search the directory" style="edgeLabel;html=1;align=center;verticalAlign=middle;resizable=0;points=[];fontStyle=1;fontSize=14;" vertex="1" connectable="0" parent="-BYuLkJd2z2CuZ6bA0mZ-67">
          <mxGeometry x="-0.0963" relative="1" as="geometry">
            <mxPoint x="-11" as="offset" />
          </mxGeometry>
        </mxCell>
        <mxCell id="-BYuLkJd2z2CuZ6bA0mZ-70" value="" style="endArrow=none;html=1;rounded=0;fillColor=#fff2cc;strokeColor=#d6b656;exitX=0.997;exitY=0.892;exitDx=0;exitDy=0;exitPerimeter=0;endFill=0;startArrow=classic;startFill=1;fontStyle=1;fontSize=14;" edge="1" parent="1" source="-BYuLkJd2z2CuZ6bA0mZ-54">
          <mxGeometry width="50" height="50" relative="1" as="geometry">
            <mxPoint x="225" y="323.71000000000004" as="sourcePoint" />
            <mxPoint x="350" y="347" as="targetPoint" />
          </mxGeometry>
        </mxCell>
        <mxCell id="-BYuLkJd2z2CuZ6bA0mZ-72" value="&lt;font style=&quot;font-size: 11px;&quot;&gt;embedding vectors&lt;/font&gt;" style="edgeLabel;html=1;align=center;verticalAlign=middle;resizable=0;points=[];fontStyle=1;fontSize=14;" vertex="1" connectable="0" parent="-BYuLkJd2z2CuZ6bA0mZ-70">
          <mxGeometry x="0.0737" y="-2" relative="1" as="geometry">
            <mxPoint x="-2" y="-3" as="offset" />
          </mxGeometry>
        </mxCell>
        <mxCell id="-BYuLkJd2z2CuZ6bA0mZ-73" value="" style="endArrow=classic;html=1;rounded=0;fillColor=#fff2cc;strokeColor=#d6b656;fontSize=14;fontStyle=1" edge="1" parent="1">
          <mxGeometry width="50" height="50" relative="1" as="geometry">
            <mxPoint x="350" y="-74" as="sourcePoint" />
            <mxPoint x="220" y="-74" as="targetPoint" />
          </mxGeometry>
        </mxCell>
        <mxCell id="-BYuLkJd2z2CuZ6bA0mZ-74" value="LLM ctx 1" style="edgeLabel;html=1;align=center;verticalAlign=middle;resizable=0;points=[];fontSize=14;fontStyle=1" vertex="1" connectable="0" parent="-BYuLkJd2z2CuZ6bA0mZ-73">
          <mxGeometry x="-0.0799" y="2" relative="1" as="geometry">
            <mxPoint x="-9" y="-1" as="offset" />
          </mxGeometry>
        </mxCell>
        <mxCell id="-BYuLkJd2z2CuZ6bA0mZ-75" value="" style="endArrow=classic;html=1;rounded=0;fillColor=#fff2cc;strokeColor=#d6b656;fontSize=14;fontStyle=1" edge="1" parent="1">
          <mxGeometry width="50" height="50" relative="1" as="geometry">
            <mxPoint x="351" y="-30" as="sourcePoint" />
            <mxPoint x="221" y="-30" as="targetPoint" />
          </mxGeometry>
        </mxCell>
        <mxCell id="-BYuLkJd2z2CuZ6bA0mZ-76" value="LLM ctx N" style="edgeLabel;html=1;align=center;verticalAlign=middle;resizable=0;points=[];fontSize=14;fontStyle=1" vertex="1" connectable="0" parent="-BYuLkJd2z2CuZ6bA0mZ-75">
          <mxGeometry x="-0.0799" y="2" relative="1" as="geometry">
            <mxPoint x="-9" y="-1" as="offset" />
          </mxGeometry>
        </mxCell>
        <mxCell id="-BYuLkJd2z2CuZ6bA0mZ-81" value="" style="endArrow=classic;html=1;rounded=0;fillColor=#ffe6cc;strokeColor=#d79b00;fontStyle=1" edge="1" parent="1">
          <mxGeometry width="50" height="50" relative="1" as="geometry">
            <mxPoint x="-130" y="698" as="sourcePoint" />
            <mxPoint x="110" y="698" as="targetPoint" />
          </mxGeometry>
        </mxCell>
        <mxCell id="-BYuLkJd2z2CuZ6bA0mZ-82" value="User query" style="edgeLabel;html=1;align=center;verticalAlign=middle;resizable=0;points=[];fontStyle=1" vertex="1" connectable="0" parent="-BYuLkJd2z2CuZ6bA0mZ-81">
          <mxGeometry x="0.2833" relative="1" as="geometry">
            <mxPoint x="-41" as="offset" />
          </mxGeometry>
        </mxCell>
        <mxCell id="-BYuLkJd2z2CuZ6bA0mZ-83" value="" style="endArrow=classic;html=1;rounded=0;fillColor=#a0522d;strokeColor=#6D1F00;fontStyle=1;fontSize=14;" edge="1" parent="1">
          <mxGeometry width="50" height="50" relative="1" as="geometry">
            <mxPoint x="110" y="476" as="sourcePoint" />
            <mxPoint x="-130" y="476" as="targetPoint" />
          </mxGeometry>
        </mxCell>
        <mxCell id="-BYuLkJd2z2CuZ6bA0mZ-84" value="Corpus directory embedded" style="edgeLabel;html=1;align=center;verticalAlign=middle;resizable=0;points=[];fontStyle=1;fontSize=14;" vertex="1" connectable="0" parent="-BYuLkJd2z2CuZ6bA0mZ-83">
          <mxGeometry x="-0.0799" y="2" relative="1" as="geometry">
            <mxPoint x="-9" y="-4" as="offset" />
          </mxGeometry>
        </mxCell>
        <mxCell id="-BYuLkJd2z2CuZ6bA0mZ-86" value="Perform RAG" style="html=1;align=left;spacingLeft=2;endArrow=block;rounded=0;edgeStyle=orthogonalEdgeStyle;curved=0;rounded=0;strokeColor=#A0522D;fontStyle=1" edge="1" parent="1">
          <mxGeometry x="-0.8636" y="-20" relative="1" as="geometry">
            <mxPoint x="110" y="718" as="sourcePoint" />
            <Array as="points">
              <mxPoint x="170" y="718" />
              <mxPoint x="170" y="1058" />
            </Array>
            <mxPoint x="110" y="1058" as="targetPoint" />
            <mxPoint as="offset" />
          </mxGeometry>
        </mxCell>
        <mxCell id="-BYuLkJd2z2CuZ6bA0mZ-87" value="" style="rounded=0;whiteSpace=wrap;html=1;strokeColor=#A0522D;fontStyle=1" vertex="1" parent="1">
          <mxGeometry x="115" y="768" width="115" height="280" as="geometry" />
        </mxCell>
        <mxCell id="-BYuLkJd2z2CuZ6bA0mZ-99" style="edgeStyle=orthogonalEdgeStyle;rounded=0;orthogonalLoop=1;jettySize=auto;html=1;exitX=1;exitY=0.25;exitDx=0;exitDy=0;fillColor=#fff2cc;strokeColor=#d6b656;fontStyle=1" edge="1" parent="1" source="-BYuLkJd2z2CuZ6bA0mZ-90">
          <mxGeometry relative="1" as="geometry">
            <mxPoint x="350" y="795.6363636363635" as="targetPoint" />
          </mxGeometry>
        </mxCell>
        <mxCell id="-BYuLkJd2z2CuZ6bA0mZ-100" value="&lt;i&gt;user query text&lt;/i&gt;" style="edgeLabel;html=1;align=center;verticalAlign=middle;resizable=0;points=[];fontStyle=1" vertex="1" connectable="0" parent="-BYuLkJd2z2CuZ6bA0mZ-99">
          <mxGeometry x="-0.3243" relative="1" as="geometry">
            <mxPoint x="13" as="offset" />
          </mxGeometry>
        </mxCell>
        <mxCell id="-BYuLkJd2z2CuZ6bA0mZ-90" value="embed user query" style="rounded=0;whiteSpace=wrap;html=1;fontStyle=1" vertex="1" parent="1">
          <mxGeometry x="119.5" y="780" width="105" height="30" as="geometry" />
        </mxCell>
        <mxCell id="-BYuLkJd2z2CuZ6bA0mZ-104" style="edgeStyle=orthogonalEdgeStyle;rounded=0;orthogonalLoop=1;jettySize=auto;html=1;exitX=1;exitY=0.25;exitDx=0;exitDy=0;fillColor=#f8cecc;strokeColor=#F8CECC;fontStyle=1" edge="1" parent="1" source="-BYuLkJd2z2CuZ6bA0mZ-91">
          <mxGeometry relative="1" as="geometry">
            <mxPoint x="590.0000000000005" y="845.5555555555557" as="targetPoint" />
          </mxGeometry>
        </mxCell>
        <mxCell id="-BYuLkJd2z2CuZ6bA0mZ-105" value="&lt;i&gt;query embedding vector&lt;/i&gt;" style="edgeLabel;html=1;align=center;verticalAlign=middle;resizable=0;points=[];fontStyle=1" vertex="1" connectable="0" parent="-BYuLkJd2z2CuZ6bA0mZ-104">
          <mxGeometry x="0.0447" y="3" relative="1" as="geometry">
            <mxPoint as="offset" />
          </mxGeometry>
        </mxCell>
        <mxCell id="-BYuLkJd2z2CuZ6bA0mZ-91" value="search for relevant vectors" style="rounded=0;whiteSpace=wrap;html=1;fontStyle=1" vertex="1" parent="1">
          <mxGeometry x="119.5" y="830" width="105" height="30" as="geometry" />
        </mxCell>
        <mxCell id="-BYuLkJd2z2CuZ6bA0mZ-110" style="edgeStyle=orthogonalEdgeStyle;rounded=0;orthogonalLoop=1;jettySize=auto;html=1;fillColor=#b1ddf0;strokeColor=#10739e;fontStyle=1;exitX=0.995;exitY=0.115;exitDx=0;exitDy=0;exitPerimeter=0;" edge="1" parent="1" source="-BYuLkJd2z2CuZ6bA0mZ-92">
          <mxGeometry relative="1" as="geometry">
            <mxPoint x="1070" y="880" as="targetPoint" />
            <mxPoint x="225" y="898" as="sourcePoint" />
          </mxGeometry>
        </mxCell>
        <mxCell id="-BYuLkJd2z2CuZ6bA0mZ-111" value="&lt;i&gt;Hash values of the Top K Vectors&lt;/i&gt;" style="edgeLabel;html=1;align=center;verticalAlign=middle;resizable=0;points=[];fontStyle=1" vertex="1" connectable="0" parent="-BYuLkJd2z2CuZ6bA0mZ-110">
          <mxGeometry x="0.0667" relative="1" as="geometry">
            <mxPoint as="offset" />
          </mxGeometry>
        </mxCell>
        <mxCell id="-BYuLkJd2z2CuZ6bA0mZ-92" value="&lt;font style=&quot;font-size: 11px;&quot;&gt;fetch corresponding &lt;br&gt;text chunks&lt;/font&gt;" style="rounded=0;whiteSpace=wrap;html=1;fontStyle=1" vertex="1" parent="1">
          <mxGeometry x="119.5" y="874" width="105" height="50" as="geometry" />
        </mxCell>
        <mxCell id="-BYuLkJd2z2CuZ6bA0mZ-93" value="&lt;span style=&quot;font-size: 11px;&quot;&gt;create LLM prompt&lt;/span&gt;" style="rounded=0;whiteSpace=wrap;html=1;fontStyle=1" vertex="1" parent="1">
          <mxGeometry x="120" y="947" width="105" height="40" as="geometry" />
        </mxCell>
        <mxCell id="-BYuLkJd2z2CuZ6bA0mZ-142" style="edgeStyle=orthogonalEdgeStyle;rounded=0;orthogonalLoop=1;jettySize=auto;html=1;exitX=1;exitY=0.25;exitDx=0;exitDy=0;fillColor=#fff2cc;strokeColor=#d6b656;" edge="1" parent="1" source="-BYuLkJd2z2CuZ6bA0mZ-94">
          <mxGeometry relative="1" as="geometry">
            <mxPoint x="350" y="1008" as="targetPoint" />
          </mxGeometry>
        </mxCell>
        <mxCell id="-BYuLkJd2z2CuZ6bA0mZ-143" value="&lt;b&gt;LLM Prompt&lt;/b&gt;" style="edgeLabel;html=1;align=center;verticalAlign=middle;resizable=0;points=[];" vertex="1" connectable="0" parent="-BYuLkJd2z2CuZ6bA0mZ-142">
          <mxGeometry x="0.1385" y="-1" relative="1" as="geometry">
            <mxPoint x="-26" as="offset" />
          </mxGeometry>
        </mxCell>
        <mxCell id="-BYuLkJd2z2CuZ6bA0mZ-94" value="&lt;span style=&quot;font-size: 11px;&quot;&gt;obtain Chat LLM response&lt;/span&gt;" style="rounded=0;whiteSpace=wrap;html=1;fontStyle=1" vertex="1" parent="1">
          <mxGeometry x="120" y="998" width="105" height="40" as="geometry" />
        </mxCell>
        <mxCell id="-BYuLkJd2z2CuZ6bA0mZ-101" style="edgeStyle=orthogonalEdgeStyle;rounded=0;orthogonalLoop=1;jettySize=auto;html=1;exitX=1;exitY=0.25;exitDx=0;exitDy=0;startArrow=classic;startFill=1;endArrow=none;endFill=0;fillColor=#e3c800;strokeColor=#B09500;fontStyle=1" edge="1" parent="1">
          <mxGeometry relative="1" as="geometry">
            <mxPoint x="350" y="807.9963636363635" as="targetPoint" />
            <mxPoint x="225" y="808.36" as="sourcePoint" />
          </mxGeometry>
        </mxCell>
        <mxCell id="-BYuLkJd2z2CuZ6bA0mZ-102" value="&lt;i&gt;embeddings vector&lt;/i&gt;" style="edgeLabel;html=1;align=center;verticalAlign=middle;resizable=0;points=[];fontStyle=1" vertex="1" connectable="0" parent="-BYuLkJd2z2CuZ6bA0mZ-101">
          <mxGeometry x="-0.3243" relative="1" as="geometry">
            <mxPoint x="23" as="offset" />
          </mxGeometry>
        </mxCell>
        <mxCell id="-BYuLkJd2z2CuZ6bA0mZ-108" style="edgeStyle=orthogonalEdgeStyle;rounded=0;orthogonalLoop=1;jettySize=auto;html=1;exitX=1.004;exitY=0.611;exitDx=0;exitDy=0;endArrow=none;endFill=0;startArrow=classic;startFill=1;exitPerimeter=0;fillColor=#fad7ac;strokeColor=#F8CECC;fontStyle=1" edge="1" parent="1">
          <mxGeometry relative="1" as="geometry">
            <mxPoint x="590" y="862" as="targetPoint" />
            <mxPoint x="225.41999999999985" y="860.3299999999999" as="sourcePoint" />
            <Array as="points">
              <mxPoint x="413" y="860" />
              <mxPoint x="413" y="862" />
            </Array>
          </mxGeometry>
        </mxCell>
        <mxCell id="-BYuLkJd2z2CuZ6bA0mZ-109" value="&lt;i&gt;Top K similar vectors&lt;/i&gt;" style="edgeLabel;html=1;align=center;verticalAlign=middle;resizable=0;points=[];fontStyle=1" vertex="1" connectable="0" parent="-BYuLkJd2z2CuZ6bA0mZ-108">
          <mxGeometry x="0.0447" y="3" relative="1" as="geometry">
            <mxPoint as="offset" />
          </mxGeometry>
        </mxCell>
        <mxCell id="-BYuLkJd2z2CuZ6bA0mZ-112" style="edgeStyle=orthogonalEdgeStyle;rounded=0;orthogonalLoop=1;jettySize=auto;html=1;exitX=1;exitY=0.25;exitDx=0;exitDy=0;startArrow=classic;startFill=1;endArrow=none;endFill=0;fillColor=#b1ddf0;strokeColor=#10739e;fontStyle=1" edge="1" parent="1">
          <mxGeometry relative="1" as="geometry">
            <mxPoint x="1070" y="919" as="targetPoint" />
            <mxPoint x="225" y="919" as="sourcePoint" />
          </mxGeometry>
        </mxCell>
        <mxCell id="-BYuLkJd2z2CuZ6bA0mZ-113" value="&lt;i&gt;Text chunks for matching hash values&lt;/i&gt;" style="edgeLabel;html=1;align=center;verticalAlign=middle;resizable=0;points=[];fontStyle=1" vertex="1" connectable="0" parent="-BYuLkJd2z2CuZ6bA0mZ-112">
          <mxGeometry x="0.0667" relative="1" as="geometry">
            <mxPoint as="offset" />
          </mxGeometry>
        </mxCell>
        <mxCell id="-BYuLkJd2z2CuZ6bA0mZ-116" style="edgeStyle=orthogonalEdgeStyle;rounded=0;orthogonalLoop=1;jettySize=auto;html=1;exitX=1.002;exitY=0.903;exitDx=0;exitDy=0;startArrow=classic;startFill=1;endArrow=none;endFill=0;fillColor=#fff2cc;strokeColor=#d6b656;fontStyle=1;exitPerimeter=0;" edge="1" parent="1">
          <mxGeometry relative="1" as="geometry">
            <mxPoint x="350" y="1032" as="targetPoint" />
            <mxPoint x="225.21000000000026" y="1032.12" as="sourcePoint" />
            <Array as="points">
              <mxPoint x="350" y="1032" />
            </Array>
          </mxGeometry>
        </mxCell>
        <mxCell id="-BYuLkJd2z2CuZ6bA0mZ-117" value="LLM Response" style="edgeLabel;html=1;align=center;verticalAlign=middle;resizable=0;points=[];fontStyle=1" vertex="1" connectable="0" parent="-BYuLkJd2z2CuZ6bA0mZ-116">
          <mxGeometry x="-0.194" y="1" relative="1" as="geometry">
            <mxPoint as="offset" />
          </mxGeometry>
        </mxCell>
        <mxCell id="-BYuLkJd2z2CuZ6bA0mZ-118" value="&lt;font style=&quot;font-size: 22px;&quot;&gt;User Interface&lt;/font&gt;" style="rounded=0;whiteSpace=wrap;html=1;fillColor=#d5e8d4;strokeColor=#82b366;" vertex="1" parent="1">
          <mxGeometry x="-220" y="10" width="180" height="60" as="geometry" />
        </mxCell>
        <mxCell id="-BYuLkJd2z2CuZ6bA0mZ-119" value="&lt;font style=&quot;font-size: 22px;&quot;&gt;RAG Backend&lt;/font&gt;" style="rounded=0;whiteSpace=wrap;html=1;fillColor=#a0522d;strokeColor=#6D1F00;fontColor=#ffffff;" vertex="1" parent="1">
          <mxGeometry x="20" y="10" width="180" height="60" as="geometry" />
        </mxCell>
        <mxCell id="-BYuLkJd2z2CuZ6bA0mZ-120" value="&lt;div style=&quot;font-size: 20px;&quot;&gt;&lt;span style=&quot;background-color: initial;&quot;&gt;&lt;font style=&quot;font-size: 20px;&quot;&gt;Cosine Similarity&amp;nbsp;&lt;/font&gt;&lt;/span&gt;&lt;/div&gt;&lt;div style=&quot;font-size: 20px;&quot;&gt;&lt;span style=&quot;background-color: initial;&quot;&gt;&lt;font style=&quot;font-size: 20px;&quot;&gt;(on NPU)&lt;/font&gt;&lt;/span&gt;&lt;br&gt;&lt;/div&gt;" style="rounded=0;whiteSpace=wrap;html=1;container=0;fillColor=#f8cecc;strokeColor=#b85450;" vertex="1" parent="1">
          <mxGeometry x="500" y="10" width="180" height="60" as="geometry" />
        </mxCell>
        <mxCell id="-BYuLkJd2z2CuZ6bA0mZ-121" value="&lt;div style=&quot;font-size: 22px;&quot;&gt;&lt;font style=&quot;font-size: 22px;&quot;&gt;PostgresSQL&lt;/font&gt;&lt;/div&gt;&lt;div style=&quot;font-size: 22px;&quot;&gt;&lt;font style=&quot;font-size: 22px;&quot;&gt;Database&lt;/font&gt;&lt;/div&gt;" style="rounded=0;whiteSpace=wrap;html=1;container=0;fillColor=#dae8fc;strokeColor=#6c8ebf;" vertex="1" parent="1">
          <mxGeometry x="980" y="10" width="180" height="60" as="geometry" />
        </mxCell>
        <mxCell id="-BYuLkJd2z2CuZ6bA0mZ-122" value="&lt;font style=&quot;&quot;&gt;&lt;font style=&quot;font-size: 22px;&quot;&gt;File System&lt;/font&gt;&lt;br&gt;&lt;/font&gt;" style="rounded=0;whiteSpace=wrap;html=1;fillColor=#e1d5e7;strokeColor=#9673a6;" vertex="1" parent="1">
          <mxGeometry x="740" y="10" width="180" height="60" as="geometry" />
        </mxCell>
        <mxCell id="-BYuLkJd2z2CuZ6bA0mZ-123" value="&lt;div style=&quot;font-size: 20px;&quot;&gt;&lt;div&gt;llama.cpp&lt;/div&gt;&lt;div&gt;(LLM on GPU)&lt;/div&gt;&lt;/div&gt;" style="rounded=0;whiteSpace=wrap;html=1;container=0;fillColor=#fff2cc;strokeColor=#d6b656;" vertex="1" parent="1">
          <mxGeometry x="260" y="10" width="180" height="60" as="geometry" />
        </mxCell>
        <mxCell id="-BYuLkJd2z2CuZ6bA0mZ-124" value="&lt;font style=&quot;font-size: 22px;&quot;&gt;User Interface&lt;/font&gt;" style="rounded=0;whiteSpace=wrap;html=1;fillColor=#d5e8d4;strokeColor=#82b366;" vertex="1" parent="1">
          <mxGeometry x="-220" y="610" width="180" height="60" as="geometry" />
        </mxCell>
        <mxCell id="-BYuLkJd2z2CuZ6bA0mZ-125" value="&lt;font style=&quot;font-size: 22px;&quot;&gt;RAG Backend&lt;/font&gt;" style="rounded=0;whiteSpace=wrap;html=1;fillColor=#a0522d;strokeColor=#6D1F00;fontColor=#ffffff;" vertex="1" parent="1">
          <mxGeometry x="20" y="610" width="180" height="60" as="geometry" />
        </mxCell>
        <mxCell id="-BYuLkJd2z2CuZ6bA0mZ-126" value="&lt;div style=&quot;font-size: 20px;&quot;&gt;&lt;span style=&quot;background-color: initial;&quot;&gt;&lt;font style=&quot;font-size: 20px;&quot;&gt;Cosine Similarity&amp;nbsp;&lt;/font&gt;&lt;/span&gt;&lt;/div&gt;&lt;div style=&quot;font-size: 20px;&quot;&gt;&lt;span style=&quot;background-color: initial;&quot;&gt;&lt;font style=&quot;font-size: 20px;&quot;&gt;(on NPU)&lt;/font&gt;&lt;/span&gt;&lt;br&gt;&lt;/div&gt;" style="rounded=0;whiteSpace=wrap;html=1;container=0;fillColor=#F8CECC;strokeColor=#b85450;" vertex="1" parent="1">
          <mxGeometry x="500" y="610" width="180" height="60" as="geometry" />
        </mxCell>
        <mxCell id="-BYuLkJd2z2CuZ6bA0mZ-127" value="&lt;div style=&quot;font-size: 22px;&quot;&gt;&lt;font style=&quot;font-size: 22px;&quot;&gt;PostgresSQL&lt;/font&gt;&lt;/div&gt;&lt;div style=&quot;font-size: 22px;&quot;&gt;&lt;font style=&quot;font-size: 22px;&quot;&gt;Database&lt;/font&gt;&lt;/div&gt;" style="rounded=0;whiteSpace=wrap;html=1;container=0;fillColor=#dae8fc;strokeColor=#6c8ebf;" vertex="1" parent="1">
          <mxGeometry x="980" y="610" width="180" height="60" as="geometry" />
        </mxCell>
        <mxCell id="-BYuLkJd2z2CuZ6bA0mZ-128" value="&lt;font style=&quot;&quot;&gt;&lt;font style=&quot;font-size: 22px;&quot;&gt;File System&lt;/font&gt;&lt;br&gt;&lt;/font&gt;" style="rounded=0;whiteSpace=wrap;html=1;fillColor=#e1d5e7;strokeColor=#9673a6;" vertex="1" parent="1">
          <mxGeometry x="740" y="610" width="180" height="60" as="geometry" />
        </mxCell>
        <mxCell id="-BYuLkJd2z2CuZ6bA0mZ-129" value="&lt;div style=&quot;font-size: 20px;&quot;&gt;&lt;div&gt;llama.cpp&lt;/div&gt;&lt;div&gt;(LLM on GPU)&lt;/div&gt;&lt;/div&gt;" style="rounded=0;whiteSpace=wrap;html=1;container=0;fillColor=#fff2cc;strokeColor=#d6b656;" vertex="1" parent="1">
          <mxGeometry x="260" y="610" width="180" height="60" as="geometry" />
        </mxCell>
        <mxCell id="-BYuLkJd2z2CuZ6bA0mZ-135" value="Create DB connection pool" style="html=1;align=left;spacingLeft=2;endArrow=block;rounded=0;edgeStyle=orthogonalEdgeStyle;curved=0;rounded=0;fontSize=14;fontStyle=1;fillColor=#a0522d;strokeColor=#6D1F00;" edge="1" parent="1">
          <mxGeometry x="-0.9247" y="-27" relative="1" as="geometry">
            <mxPoint x="110" y="-217" as="sourcePoint" />
            <Array as="points">
              <mxPoint x="220" y="-217" />
              <mxPoint x="220" y="-160" />
            </Array>
            <mxPoint x="110" y="-160" as="targetPoint" />
            <mxPoint as="offset" />
          </mxGeometry>
        </mxCell>
        <mxCell id="-BYuLkJd2z2CuZ6bA0mZ-136" value="" style="endArrow=classic;html=1;rounded=0;fillColor=#dae8fc;strokeColor=#6c8ebf;fontSize=14;fontStyle=1" edge="1" parent="1">
          <mxGeometry width="50" height="50" relative="1" as="geometry">
            <mxPoint x="1070" y="-212" as="sourcePoint" />
            <mxPoint x="220" y="-212" as="targetPoint" />
          </mxGeometry>
        </mxCell>
        <mxCell id="-BYuLkJd2z2CuZ6bA0mZ-137" value="DB conn 1" style="edgeLabel;html=1;align=center;verticalAlign=middle;resizable=0;points=[];fontSize=14;fontStyle=1" vertex="1" connectable="0" parent="-BYuLkJd2z2CuZ6bA0mZ-136">
          <mxGeometry x="-0.0799" y="2" relative="1" as="geometry">
            <mxPoint x="-9" y="-1" as="offset" />
          </mxGeometry>
        </mxCell>
        <mxCell id="-BYuLkJd2z2CuZ6bA0mZ-138" value="" style="endArrow=classic;html=1;rounded=0;fillColor=#dae8fc;strokeColor=#6c8ebf;fontSize=14;fontStyle=1" edge="1" parent="1">
          <mxGeometry width="50" height="50" relative="1" as="geometry">
            <mxPoint x="1070" y="-168" as="sourcePoint" />
            <mxPoint x="221" y="-168" as="targetPoint" />
          </mxGeometry>
        </mxCell>
        <mxCell id="-BYuLkJd2z2CuZ6bA0mZ-139" value="DB conn N" style="edgeLabel;html=1;align=center;verticalAlign=middle;resizable=0;points=[];fontSize=14;fontStyle=1" vertex="1" connectable="0" parent="-BYuLkJd2z2CuZ6bA0mZ-138">
          <mxGeometry x="-0.0799" y="2" relative="1" as="geometry">
            <mxPoint x="-9" y="-1" as="offset" />
          </mxGeometry>
        </mxCell>
        <mxCell id="-BYuLkJd2z2CuZ6bA0mZ-144" value="" style="endArrow=classic;html=1;rounded=0;startArrow=classic;startFill=1;fillColor=#e1d5e7;strokeColor=#9673a6;" edge="1" parent="1">
          <mxGeometry width="50" height="50" relative="1" as="geometry">
            <mxPoint x="590" y="855" as="sourcePoint" />
            <mxPoint x="830" y="855" as="targetPoint" />
          </mxGeometry>
        </mxCell>
        <mxCell id="-BYuLkJd2z2CuZ6bA0mZ-145" value="read vector dump cache" style="edgeLabel;html=1;align=center;verticalAlign=middle;resizable=0;points=[];" vertex="1" connectable="0" parent="-BYuLkJd2z2CuZ6bA0mZ-144">
          <mxGeometry x="-0.0798" y="1" relative="1" as="geometry">
            <mxPoint as="offset" />
          </mxGeometry>
        </mxCell>
        <mxCell id="-BYuLkJd2z2CuZ6bA0mZ-146" value="" style="endArrow=classic;html=1;rounded=0;fillColor=#a0522d;strokeColor=#6D1F00;fontStyle=1;fontSize=14;" edge="1" parent="1">
          <mxGeometry width="50" height="50" relative="1" as="geometry">
            <mxPoint x="110" y="1090" as="sourcePoint" />
            <mxPoint x="-130" y="1090" as="targetPoint" />
          </mxGeometry>
        </mxCell>
        <mxCell id="-BYuLkJd2z2CuZ6bA0mZ-147" value="Response from LLM" style="edgeLabel;html=1;align=center;verticalAlign=middle;resizable=0;points=[];fontStyle=1;fontSize=11;" vertex="1" connectable="0" parent="-BYuLkJd2z2CuZ6bA0mZ-146">
          <mxGeometry x="-0.0799" y="2" relative="1" as="geometry">
            <mxPoint x="-9" y="-4" as="offset" />
          </mxGeometry>
        </mxCell>
      </root>
    </mxGraphModel>
  </diagram>
</mxfile>
